<?xml version="1.0" encoding="UTF-8" standalone="no"?>
<svg
   xmlns:dc="http://purl.org/dc/elements/1.1/"
   xmlns:cc="http://creativecommons.org/ns#"
   xmlns:rdf="http://www.w3.org/1999/02/22-rdf-syntax-ns#"
   xmlns:svg="http://www.w3.org/2000/svg"
   xmlns="http://www.w3.org/2000/svg"
   xmlns:sodipodi="http://sodipodi.sourceforge.net/DTD/sodipodi-0.dtd"
   xmlns:inkscape="http://www.inkscape.org/namespaces/inkscape"
   version="1.1"
   id="Layer_1"
   x="0px"
   y="0px"
   width="369"
   height="462"
   viewBox="0 0 369.00001 461.99998"
   enable-background="new 0 0 140.603 160.492"
   xml:space="preserve">
<path
   style="fill:#ffffff"
   d="m 289.0411,277.1815 c 19.93343,-2.68953 37.94944,-11.66536 52.66787,-26.35162 17.8648,-17.84872 27.29104,-40.5328 27.29104,-65.6201 0,-25.14841 -9.47128,-47.85823 -27.39399,-65.67478 C 323.78626,101.77637 301.07644,92.372655 275.97306,92.372655 H 185.67104 C 185.55844,67.510564 176.1869,45.029161 158.55052,27.325216 140.86266,9.4765 118.20431,0.00201031 93.100936,0.00201031 67.86244,0.00201031 45.139751,9.254517 27.387549,26.758999 9.4584043,44.475812 3.6059999e-7,67.327187 3.6059999e-7,92.874529 V 277.22654 C 3.6059999e-7,327.93839 18.228339,371.87814 54.176709,407.82329 90.121861,443.77166 134.06162,462 184.77024,462 h 91.3669 c 25.08407,0 47.76494,-9.41658 65.59435,-27.23312 17.82941,-17.79403 27.26852,-40.48776 27.26852,-65.60079 0,-25.08407 -9.42945,-47.76816 -27.26852,-65.59435 -14.72165,-14.712 -32.74087,-23.69749 -52.69039,-26.39024 z"
   id="path49" /><path
   style="fill:#33ccff"
   d="m 276.12105,322.97433 h -91.39263 c -12.69807,0 -23.48837,-4.45252 -32.37734,-13.33828 -8.89862,-8.91792 -13.32541,-19.72752 -13.32541,-32.45133 v -45.79283 h 137.09538 c 12.67877,0 23.57202,-4.53617 32.63793,-13.58278 9.0627,-9.05626 13.59565,-19.93343 13.59565,-32.60254 0,-12.67877 -4.52974,-23.54306 -13.63104,-32.59289 -9.09808,-9.06591 -20.01385,-13.59887 -32.74731,-13.59887 H 139.02567 V 92.835923 c 0,-12.685199 -4.51044,-23.543061 -13.52487,-32.592888 -8.98227,-9.062695 -19.80474,-13.595651 -32.396646,-13.595651 -12.971526,0 -23.96129,4.452528 -32.956426,13.325411 -8.998352,8.892187 -13.49592,19.84978 -13.49592,32.901734 V 277.22654 c 0,38.07169 13.49592,70.5938 40.513497,97.61138 27.014365,27.01436 59.542905,40.51349 97.608155,40.51349 h 91.3669 c 12.6852,0 23.55271,-4.5233 32.61862,-13.58278 9.0627,-9.04661 13.59565,-19.92056 13.59565,-32.60254 0,-12.67233 -4.52974,-23.53663 -13.59565,-32.5961 -9.06591,-9.05948 -19.95916,-13.59566 -32.63793,-13.59566 z"
   id="path51" />
</svg>