 <svg
    version="1"
    id="csscrush"
    width="256px"
    height="130px"
    xmlns="http://www.w3.org/2000/svg"
    xmlns:xlink="http://www.w3.org/1999/xlink">
    <style type="text/css">
    #csscrush-crush {
        fill: #0FB07D;
        }
    #csscrush-css {
        fill: #2C2C2C;
        }
    #csscrush-disc {
        fill: #B1B1B1;
        }
    #csscrush-tilde1 {
        fill: #555;
        }
    #csscrush-tilde2 {
        fill: #eee;
        }
    </style>
    <g id="csscrush-logo" transform="scale(.8)">
        <path id="csscrush-css" d="M69.55,52.11 C67.89,53.00 65.78,54.00 63.33,55.00 C56.34,58.00 43.90,60.11 33.90,53.78 C23.02,48.45 19.90,33.79 23.57,26.12 C26.68,18.46 30.46,14.79 30.35,14.68 C30.46,14.79 26.79,18.57 23.90,26.23 C20.46,33.90 23.90,48.00 34.46,52.78 C44.23,58.55 55.89,56.22 62.67,53.22 C65.22,52.11 67.44,51.00 69.11,49.89 L68.78,48.11 C67.00,49.11 64.67,50.33 61.89,51.33 C55.23,54.11 44.45,55.89 35.79,50.44 C26.57,45.78 24.24,33.89 27.24,27.34 C30.01,20.68 33.46,17.23 33.34,17.12 C33.46,17.12 30.01,20.79 27.57,27.45 C24.79,34.12 27.46,45.22 36.34,49.44 C44.67,54.33 54.89,52.44 61.22,49.67 C64.22,48.33 66.55,47.00 68.33,45.89 L68.00,44.11 C66.22,45.11 63.67,46.56 60.45,47.78 C54.23,50.33 44.90,51.66 37.79,47.11 C30.12,43.00 28.46,34.12 30.90,28.67 C33.23,22.90 36.57,19.57 36.34,19.45 C36.57,19.57 33.34,23.01 31.23,28.78 C29.12,34.34 31.01,42.56 38.34,46.11 C45.23,50.22 53.89,48.67 59.78,46.00 C63.33,44.44 66.00,42.89 67.55,41.78 L67.55,41.78 L75.33,11.57 L63.67,5.46 C60.67,3.90 58.00,3.24 54.78,2.46 C51.56,1.90 48.01,1.46 44.01,1.46 C33.23,1.46 22.46,4.90 14.02,12.46 C5.69,20.01 0.80,31.67 0.91,43.89 C0.91,49.11 1.69,54.33 3.58,59.22 C6.24,66.66 11.46,73.55 18.46,78.10 C25.57,82.65 34.01,84.88 42.90,84.88 L43.01,84.88 C47.01,84.88 50.67,84.43 53.89,83.88 C57.11,83.21 59.78,82.43 62.89,80.99 L74.00,75.32 L71.67,63.10 L69.55,52.11 L69.55,52.11 L69.55,52.11 M140.42,36.23 C137.42,33.67 132.09,30.34 125.32,29.68 C115.21,28.23 104.88,33.01 104.32,33.12 C104.88,33.01 114.88,27.68 125.43,28.56 C131.65,28.79 137.09,31.45 140.53,33.78 L141.09,31.78 C137.53,29.23 132.09,26.34 125.76,25.79 C114.21,24.34 103.43,29.45 102.77,29.56 C103.43,29.45 113.88,23.79 125.87,24.68 C132.20,24.90 137.76,27.45 141.64,29.90 L142.20,27.90 C138.20,25.23 132.65,22.56 126.09,21.90 C113.32,20.45 101.88,25.90 101.10,26.01 C101.88,25.90 112.99,19.79 126.20,20.79 C132.65,21.12 138.42,23.45 142.75,26.01 L146.86,11.01 L133.98,5.24 C129.20,3.13 122.54,1.35 114.76,1.35 C105.99,1.35 97.44,3.79 90.66,9.35 C87.33,12.12 84.44,15.68 82.55,19.68 C80.67,23.79 79.78,28.12 79.78,32.56 C79.78,36.34 80.55,40.34 82.00,43.89 C82.22,44.33 82.44,44.67 82.67,45.11 C85.00,47.33 91.22,52.33 99.44,53.11 C109.54,54.44 119.76,49.78 120.43,49.56 C119.76,49.78 109.88,55.00 99.33,54.22 C92.22,54.00 86.22,50.55 82.89,48.11 L82.33,50.00 C85.89,52.78 91.77,56.33 98.99,57.00 C110.54,58.44 121.32,53.22 121.98,53.11 C121.32,53.33 110.77,59.00 98.88,58.11 C91.88,57.78 85.78,54.78 81.89,52.11 L81.89,52.22 L81.33,54.11 C85.44,57.00 91.44,60.22 98.66,60.77 C111.43,62.33 122.87,56.77 123.54,56.66 C122.87,56.78 111.77,62.88 98.55,61.88 C91.44,61.66 85.33,58.77 80.89,56.11 L76.55,73.55 L87.66,79.66 C90.99,81.43 94.10,82.54 97.66,83.43 C101.21,84.21 105.10,84.77 109.43,84.77 L109.54,84.77 C118.98,84.77 128.09,82.21 135.09,76.32 C142.09,70.44 145.75,61.33 145.64,53.11 C145.64,49.78 145.08,46.22 143.86,42.78 C143.09,40.45 141.86,38.23 140.42,36.23 C140.42,36.23 141.86,38.23 140.42,36.23 L140.42,36.23 M210.84,36.23 C207.84,33.67 202.51,30.34 195.74,29.68 C185.63,28.23 175.30,33.01 174.74,33.12 C175.30,33.01 185.30,27.68 195.85,28.56 C202.07,28.79 207.51,31.45 210.95,33.78 L211.51,31.78 C207.95,29.23 202.51,26.34 196.18,25.79 C184.63,24.34 173.85,29.45 173.19,29.56 C173.85,29.45 184.30,23.79 196.29,24.68 C202.62,24.90 208.18,27.45 212.06,29.90 L212.62,27.90 C208.62,25.23 203.07,22.56 196.51,21.90 C183.74,20.45 172.30,25.90 171.52,26.01 C172.30,25.90 183.41,19.79 196.63,20.79 C203.07,21.12 208.84,23.45 213.17,26.01 L217.28,11.01 L204.40,5.24 C199.62,3.13 192.96,1.35 185.19,1.35 C176.41,1.35 167.86,3.79 161.08,9.35 C157.75,12.12 154.86,15.68 152.98,19.68 C151.09,23.79 150.20,28.12 150.20,32.56 C150.20,36.34 150.98,40.34 152.42,43.89 C152.64,44.33 152.86,44.67 153.09,45.11 C155.42,47.33 161.64,52.33 169.86,53.11 C179.96,54.44 190.18,49.78 190.85,49.56 C190.18,49.78 180.30,55.00 169.75,54.22 C162.64,54.00 156.64,50.55 153.31,48.11 L152.75,50.00 C156.31,52.78 162.19,56.33 169.41,57.00 C180.96,58.44 191.74,53.22 192.41,53.11 C191.74,53.33 181.19,59.00 169.30,58.11 C162.30,57.78 156.20,54.78 152.31,52.11 L152.31,52.22 L151.75,54.11 C155.86,57.00 161.86,60.22 169.08,60.77 C181.85,62.33 193.29,56.77 193.96,56.66 C193.29,56.78 182.19,62.88 168.97,61.88 C161.86,61.66 155.75,58.77 151.31,56.11 L146.98,73.55 L158.08,79.66 C161.42,81.43 164.53,82.54 168.08,83.43 C171.64,84.21 175.52,84.76 179.85,84.76 L179.97,84.76 C189.41,84.76 198.51,82.21 205.51,76.32 C212.51,70.44 216.17,61.33 216.06,53.11 C216.06,49.78 215.51,46.22 214.29,42.78 C213.51,40.45 212.28,38.23 210.84,36.23 C210.84,36.23 212.28,38.23 210.84,36.23 L210.84,36.23"/>
        <path id="csscrush-crush" d="M55.29,133.18 C53.97,133.88 52.30,134.67 50.36,135.47 C44.82,137.84 34.96,139.51 27.04,134.50 C18.42,130.27 15.96,118.66 18.86,112.59 C21.33,106.52 24.32,103.61 24.23,103.53 C24.32,103.61 21.41,106.61 19.13,112.68 C16.40,118.75 19.13,129.92 27.48,133.71 C35.23,138.28 44.47,136.43 49.83,134.06 C51.86,133.18 53.62,132.30 54.94,131.42 L54.67,130.01 C53.27,130.80 51.42,131.77 49.22,132.56 C43.94,134.76 35.40,136.17 28.54,131.86 C21.24,128.16 19.39,118.75 21.77,113.56 C23.97,108.28 26.69,105.55 26.61,105.46 C26.69,105.46 23.97,108.37 22.03,113.65 C19.83,118.92 21.94,127.72 28.98,131.07 C35.58,134.94 43.67,133.44 48.69,131.24 C51.06,130.19 52.91,129.13 54.32,128.25 L54.06,126.84 C52.65,127.63 50.62,128.78 48.07,129.75 C43.15,131.77 35.76,132.83 30.12,129.22 C24.05,125.96 22.73,118.92 24.67,114.61 C26.52,110.04 29.16,107.40 28.98,107.31 C29.16,107.40 26.61,110.12 24.93,114.70 C23.26,119.10 24.76,125.61 30.56,128.43 C36.02,131.68 42.88,130.45 47.55,128.34 C50.36,127.11 52.47,125.87 53.70,124.99 L53.70,124.99 L59.86,101.06 L50.62,96.22 C48.25,94.99 46.14,94.46 43.59,93.85 C41.03,93.41 38.22,93.06 35.05,93.06 C26.52,93.06 17.98,95.78 11.29,101.77 C4.69,107.75 0.82,116.99 0.91,126.67 C0.91,130.80 1.53,134.94 3.02,138.81 C5.13,144.70 9.27,150.16 14.81,153.77 C20.44,157.37 27.13,159.13 34.17,159.13 L34.26,159.13 C37.43,159.13 40.33,158.78 42.88,158.34 C45.43,157.81 47.54,157.20 50.01,156.05 L58.81,151.57 L56.96,141.89 L55.29,133.18 L55.29,133.18 L55.29,133.18 M116.68,140.11 C116.51,139.60 116.17,138.41 115.83,137.05 C115.66,136.54 115.57,135.95 115.40,135.44 C113.02,137.31 110.22,139.01 106.90,140.03 C97.21,143.51 87.61,141.13 87.01,141.22 C87.61,141.13 97.30,143.00 106.56,139.26 C109.96,137.99 112.77,136.04 115.06,133.99 L114.55,132.21 C112.26,134.16 109.37,136.12 105.88,137.22 C97.13,140.37 88.04,138.24 87.44,138.24 C88.04,138.16 97.22,139.86 105.54,136.37 C109.11,135.10 112.00,132.89 114.13,130.68 C113.96,130.17 113.79,129.57 113.53,128.98 C111.41,131.10 108.43,133.23 104.78,134.42 C96.96,137.22 88.46,135.27 87.95,135.27 C88.46,135.18 97.13,136.71 104.44,133.57 C110.73,131.27 114.38,126.00 115.57,123.96 C116.08,122.09 116.42,120.05 116.42,118.01 C116.42,114.78 115.83,111.38 114.38,108.16 C112.94,105.01 110.73,102.12 108.09,100.00 C104.86,97.53 101.29,96.09 97.98,95.24 C94.49,94.47 91.18,94.22 87.69,94.22 C82.51,94.22 77.92,94.56 74.18,95.15 L63.47,96.94 L63.47,158.22 L125.77,158.22 L116.68,140.11 L116.68,140.11 L116.68,140.11 M148.70,94.47 C148.70,99.71 148.53,134.63 148.53,134.63 C148.53,134.63 147.15,99.63 146.89,94.47 L145.60,94.47 C145.60,99.54 145.52,134.71 145.52,134.71 C145.52,134.71 144.05,99.45 143.88,94.47 L142.59,94.47 C142.59,99.37 142.51,134.71 142.51,134.71 C142.51,134.71 141.04,99.20 140.87,94.47 L121.01,94.47 L121.01,128.69 C121.01,132.74 121.52,136.60 122.64,140.39 C124.28,145.98 127.97,151.40 133.05,154.66 C138.12,157.93 143.88,159.05 149.21,159.05 L149.21,159.05 C152.91,159.05 156.70,158.53 160.31,157.24 C165.81,155.35 170.88,151.22 173.89,145.98 C176.90,140.65 178.02,134.80 178.02,128.78 L178.02,94.47 L148.70,94.47 L148.70,94.47 L148.70,94.47 M229.47,120.59 C227.10,118.57 222.87,115.93 217.51,115.40 C209.50,114.26 201.32,118.04 200.88,118.13 C201.32,118.04 209.24,113.82 217.59,114.52 C222.52,114.70 226.83,116.81 229.56,118.66 L230.00,117.08 C227.18,115.05 222.87,112.76 217.86,112.33 C208.71,111.18 200.17,115.23 199.64,115.32 C200.17,115.23 208.44,110.74 217.95,111.45 C222.96,111.62 227.36,113.65 230.44,115.58 L230.88,114.00 C227.71,111.89 223.31,109.77 218.12,109.25 C208.00,108.10 198.94,112.41 198.33,112.50 C198.94,112.41 207.74,107.57 218.21,108.37 C223.31,108.63 227.89,110.48 231.32,112.50 L234.58,100.62 L224.37,96.05 C220.59,94.38 215.31,92.97 209.15,92.97 C202.20,92.97 195.42,94.90 190.05,99.30 C187.41,101.50 185.13,104.32 183.63,107.49 C182.13,110.74 181.43,114.17 181.43,117.69 C181.43,120.69 182.05,123.85 183.19,126.67 C183.37,127.02 183.54,127.28 183.72,127.64 C185.57,129.40 190.49,133.36 197.00,133.97 C205.01,135.03 213.11,131.33 213.63,131.16 C213.11,131.33 205.27,135.47 196.92,134.85 C191.28,134.68 186.53,131.95 183.89,130.01 L183.45,131.51 C186.27,133.71 190.93,136.52 196.65,137.05 C205.80,138.20 214.34,134.06 214.87,133.97 C214.34,134.15 205.98,138.63 196.56,137.93 C191.02,137.67 186.18,135.29 183.10,133.18 L183.10,133.27 L182.66,134.76 C185.92,137.05 190.67,139.60 196.39,140.04 C206.51,141.27 215.57,136.88 216.10,136.79 C215.57,136.87 206.77,141.71 196.30,140.92 C190.67,140.75 185.83,138.46 182.31,136.35 L178.88,150.16 L187.68,155.00 C190.32,156.41 192.78,157.29 195.60,157.99 C198.41,158.61 201.49,159.05 204.92,159.05 L205.01,159.05 C212.49,159.05 219.70,157.02 225.25,152.36 C230.79,147.70 233.69,140.48 233.61,133.97 C233.61,131.33 233.17,128.52 232.20,125.79 C231.58,123.94 230.62,122.18 229.47,120.59 C229.47,120.59 230.62,122.18 229.47,120.59 L229.47,120.59 M270.66,94.63 C270.49,96.99 269.73,115.57 269.73,115.57 C269.73,115.57 268.97,96.99 268.89,94.63 L267.62,94.63 C267.54,96.99 266.77,115.57 266.77,115.57 C266.77,115.57 265.93,96.99 265.85,94.63 L264.58,94.63 C264.49,96.99 263.73,115.57 263.73,115.57 C263.73,115.57 262.97,96.99 262.89,94.63 L237.30,94.63 L237.30,158.13 L263.31,158.13 C263.48,153.74 264.07,138.12 264.07,138.12 C264.07,138.12 264.75,153.74 264.92,158.13 L266.27,158.13 C266.44,153.74 267.11,138.12 267.11,138.12 C267.11,138.12 267.79,153.74 267.96,158.13 L269.31,158.13 C269.48,153.74 270.15,138.12 270.15,138.12 C270.15,138.12 270.74,153.74 271.00,158.13 L294.22,158.13 L294.22,94.63 L270.66,94.63 L270.66,94.63 L270.66,94.63"/>
        <g id="csscrush-disc-unit">
            <path id="csscrush-disc" d="M260.17,0.98 C282.80,0.98 301.15,19.33 301.15,41.96 C301.15,64.60 282.80,82.95 260.17,82.95 C237.53,82.95 219.18,64.60 219.18,41.96 C219.18,19.33 237.53,0.98 260.17,0.98 C260.17,0.98 237.53,0.98 260.17,0.98 L260.17,0.98"/>
            <path id="csscrush-tilde1" d="M252.67,37.40 C247.16,37.40 243.44,37.82 240.28,41.53 C236.97,45.66 233.81,53.10 233.39,56.40 C234.22,58.88 238.76,59.43 240.83,58.19 C243.58,51.45 246.61,47.32 252.53,47.32 L271.53,47.32 C276.35,47.32 279.38,46.77 281.99,43.74 C285.02,40.43 288.19,34.38 289.56,29.28 C288.05,26.67 284.06,25.84 281.85,27.22 C279.24,34.24 276.76,37.40 270.15,37.40 L252.67,37.40 L252.67,37.40 L252.67,37.40"/>
            <path id="csscrush-tilde2" d="M249.67,35.40 C244.16,35.40 240.44,35.82 237.28,39.53 C233.97,43.66 230.81,51.10 230.39,54.40 C231.22,56.88 235.76,57.43 237.83,56.19 C240.58,49.45 243.61,45.32 249.53,45.32 L268.53,45.32 C273.35,45.32 276.38,44.77 278.99,41.74 C282.02,38.43 285.19,32.38 286.56,27.28 C285.05,24.67 281.06,23.84 278.85,25.22 C276.24,32.24 273.76,35.40 267.15,35.40 L249.67,35.40 L249.67,35.40 L249.67,35.40"/>
        </g>
    </g>
</svg>